<mxfile host="app.diagrams.net" modified="2024-02-06T14:44:26.699Z" agent="Mozilla/5.0 (Windows NT 10.0; Win64; x64) AppleWebKit/537.36 (KHTML, like Gecko) Chrome/121.0.0.0 Safari/537.36" etag="U7b1IlkxEPAYW9d3r-Ln" version="23.1.0" type="device">
  <diagram name="Page-1" id="OvAdFRqeolTUwX-1ooKZ">
    <mxGraphModel dx="2140" dy="1622" grid="1" gridSize="10" guides="1" tooltips="1" connect="1" arrows="1" fold="1" page="1" pageScale="1" pageWidth="850" pageHeight="1100" math="0" shadow="0">
      <root>
        <mxCell id="0" />
        <mxCell id="1" parent="0" />
        <mxCell id="QQ15XnKKrfbATEUxWc8g-1" value="" style="rounded=0;whiteSpace=wrap;html=1;" vertex="1" parent="1">
          <mxGeometry x="280" y="200" width="260" height="220" as="geometry" />
        </mxCell>
        <mxCell id="QQ15XnKKrfbATEUxWc8g-2" value="Marking Management System" style="text;html=1;strokeColor=none;fillColor=none;align=center;verticalAlign=middle;whiteSpace=wrap;rounded=0;" vertex="1" parent="1">
          <mxGeometry x="330" y="290" width="160" height="30" as="geometry" />
        </mxCell>
        <mxCell id="QQ15XnKKrfbATEUxWc8g-3" value="" style="ellipse;whiteSpace=wrap;html=1;" vertex="1" parent="1">
          <mxGeometry x="640" y="-50" width="120" height="80" as="geometry" />
        </mxCell>
        <mxCell id="QQ15XnKKrfbATEUxWc8g-6" value="" style="endArrow=classic;html=1;rounded=0;exitX=0.227;exitY=0.97;exitDx=0;exitDy=0;exitPerimeter=0;entryX=1;entryY=0;entryDx=0;entryDy=0;" edge="1" parent="1" source="QQ15XnKKrfbATEUxWc8g-3" target="QQ15XnKKrfbATEUxWc8g-1">
          <mxGeometry relative="1" as="geometry">
            <mxPoint x="340" y="80" as="sourcePoint" />
            <mxPoint x="490" y="200" as="targetPoint" />
          </mxGeometry>
        </mxCell>
        <mxCell id="QQ15XnKKrfbATEUxWc8g-9" value="Add CA Marks" style="edgeLabel;html=1;align=center;verticalAlign=middle;resizable=0;points=[];" vertex="1" connectable="0" parent="QQ15XnKKrfbATEUxWc8g-6">
          <mxGeometry x="0.035" y="2" relative="1" as="geometry">
            <mxPoint as="offset" />
          </mxGeometry>
        </mxCell>
        <mxCell id="QQ15XnKKrfbATEUxWc8g-13" value="" style="endArrow=classic;html=1;rounded=0;entryX=0.911;entryY=-0.005;entryDx=0;entryDy=0;entryPerimeter=0;exitX=0.1;exitY=0.82;exitDx=0;exitDy=0;exitPerimeter=0;" edge="1" parent="1" source="QQ15XnKKrfbATEUxWc8g-3" target="QQ15XnKKrfbATEUxWc8g-1">
          <mxGeometry width="50" height="50" relative="1" as="geometry">
            <mxPoint x="630" y="10" as="sourcePoint" />
            <mxPoint x="470" y="190" as="targetPoint" />
          </mxGeometry>
        </mxCell>
        <mxCell id="QQ15XnKKrfbATEUxWc8g-14" value="Add Final Marks" style="text;html=1;strokeColor=none;fillColor=none;align=center;verticalAlign=middle;whiteSpace=wrap;rounded=0;" vertex="1" parent="1">
          <mxGeometry x="560" y="50" width="60" height="30" as="geometry" />
        </mxCell>
        <mxCell id="QQ15XnKKrfbATEUxWc8g-15" value="Lecture" style="text;html=1;strokeColor=none;fillColor=none;align=center;verticalAlign=middle;whiteSpace=wrap;rounded=0;" vertex="1" parent="1">
          <mxGeometry x="670" y="-25" width="60" height="30" as="geometry" />
        </mxCell>
        <mxCell id="QQ15XnKKrfbATEUxWc8g-19" value="" style="ellipse;whiteSpace=wrap;html=1;" vertex="1" parent="1">
          <mxGeometry x="-30" y="-40" width="120" height="80" as="geometry" />
        </mxCell>
        <mxCell id="QQ15XnKKrfbATEUxWc8g-20" value="Student" style="text;html=1;strokeColor=none;fillColor=none;align=center;verticalAlign=middle;whiteSpace=wrap;rounded=0;" vertex="1" parent="1">
          <mxGeometry y="-15" width="60" height="30" as="geometry" />
        </mxCell>
        <mxCell id="QQ15XnKKrfbATEUxWc8g-21" value="" style="endArrow=classic;html=1;rounded=0;entryX=1;entryY=1;entryDx=0;entryDy=0;exitX=0;exitY=0;exitDx=0;exitDy=0;" edge="1" parent="1" source="QQ15XnKKrfbATEUxWc8g-1" target="QQ15XnKKrfbATEUxWc8g-19">
          <mxGeometry width="50" height="50" relative="1" as="geometry">
            <mxPoint x="210" y="170" as="sourcePoint" />
            <mxPoint x="370" y="160" as="targetPoint" />
          </mxGeometry>
        </mxCell>
        <mxCell id="QQ15XnKKrfbATEUxWc8g-22" value="View CA eligibility" style="text;html=1;strokeColor=none;fillColor=none;align=center;verticalAlign=middle;whiteSpace=wrap;rounded=0;" vertex="1" parent="1">
          <mxGeometry x="170" y="90" width="50" height="20" as="geometry" />
        </mxCell>
        <mxCell id="QQ15XnKKrfbATEUxWc8g-23" value="" style="endArrow=classic;html=1;rounded=0;exitX=-0.009;exitY=0.136;exitDx=0;exitDy=0;exitPerimeter=0;entryX=0.71;entryY=0.955;entryDx=0;entryDy=0;entryPerimeter=0;" edge="1" parent="1" source="QQ15XnKKrfbATEUxWc8g-1" target="QQ15XnKKrfbATEUxWc8g-19">
          <mxGeometry width="50" height="50" relative="1" as="geometry">
            <mxPoint x="300" y="180" as="sourcePoint" />
            <mxPoint x="54" y="30" as="targetPoint" />
          </mxGeometry>
        </mxCell>
        <mxCell id="QQ15XnKKrfbATEUxWc8g-24" value="View Final Marks" style="text;html=1;strokeColor=none;fillColor=none;align=center;verticalAlign=middle;whiteSpace=wrap;rounded=0;" vertex="1" parent="1">
          <mxGeometry x="60" y="100" width="70" height="20" as="geometry" />
        </mxCell>
        <mxCell id="QQ15XnKKrfbATEUxWc8g-25" value="" style="ellipse;whiteSpace=wrap;html=1;" vertex="1" parent="1">
          <mxGeometry x="690" y="560" width="120" height="80" as="geometry" />
        </mxCell>
        <mxCell id="QQ15XnKKrfbATEUxWc8g-26" value="" style="endArrow=classic;html=1;rounded=0;exitX=0;exitY=0;exitDx=0;exitDy=0;entryX=1;entryY=1;entryDx=0;entryDy=0;" edge="1" parent="1" source="QQ15XnKKrfbATEUxWc8g-25" target="QQ15XnKKrfbATEUxWc8g-1">
          <mxGeometry width="50" height="50" relative="1" as="geometry">
            <mxPoint x="270" y="440" as="sourcePoint" />
            <mxPoint x="320" y="390" as="targetPoint" />
          </mxGeometry>
        </mxCell>
        <mxCell id="QQ15XnKKrfbATEUxWc8g-27" value="HOD" style="text;html=1;strokeColor=none;fillColor=none;align=center;verticalAlign=middle;whiteSpace=wrap;rounded=0;" vertex="1" parent="1">
          <mxGeometry x="720" y="585" width="60" height="30" as="geometry" />
        </mxCell>
      </root>
    </mxGraphModel>
  </diagram>
</mxfile>
